PathFileType	4	(X/Y/Z)	D:\TRACE\v60_Jaco2_6-2-23\BothDRS_Motion3_4-v60.trc
DataRate	CameraRate	NumFrames	NumMarkers	Units	OrigDataRate	OrigDataStartFrame	OrigNumFrames
100.00	100.00	      24	9	mm	100.00	6126	      7000
Frame#	Time	front left toe			Front right toe			aft left toe			aft right toe			Arm			FL body			FR body			AL Body			AR Body			
		X1	Y1	Z1	X2	Y2	Z2	X3	Y3	Z3	X4	Y4	Z4	X5	Y5	Z5	X6	Y6	Z6	X7	Y7	Z7	X8	Y8	Z8	X9	Y9	Z9	

6126	61.250	-209.54204	14.19699	-108.97365	170.60387	60.83021	-94.43914	-201.71255	73.66361	532.42822	170.07782	10.53272	512.43115	24.61740	1140.79199	-376.21463	-93.12381	517.78320	-272.57623	65.01009	518.07172	-273.34418	-80.82194	547.04639	671.73499	70.96623	537.70453	669.54034	
6127	61.260	-209.79335	14.15172	-108.74709	169.11908	51.72107	-94.43689	-201.31514	65.80322	533.28510	170.10284	10.49159	512.45636	24.89812	1140.58154	-375.58322	-93.49017	517.71722	-271.72379	64.61689	517.77649	-272.38931	-80.07562	547.20313	671.99762	71.92035	537.53107	670.25684	
6128	61.270	-210.01654	14.22740	-108.50549	169.14925	43.65868	-94.06879	-200.43585	57.94683	533.74329	169.94574	10.41132	512.46814	25.15831	1140.37122	-374.95016	-93.91050	517.86865	-271.27255	65.16553	517.23926	-272.25223	-79.23691	547.35541	672.97681	72.54961	537.38177	670.78156	
6129	61.280	-210.11652	14.25831	-108.32846	170.47897	36.37829	-93.77077	-198.78944	49.59421	533.91052	170.05396	10.22213	512.54126	25.80829	1140.08801	-374.23755	-93.91858	517.75812	-270.61160	64.99907	517.16785	-271.77686	-78.53535	547.33197	673.47302	73.09000	537.17285	671.11292	
6130	61.290	-210.28029	14.34825	-108.19585	170.86700	29.22588	-94.01037	-198.18996	43.05609	533.94617	170.02684	9.95670	512.55634	26.42896	1139.99438	-373.75122	-94.01421	517.73309	-269.67462	64.25222	517.11420	-271.30273	-77.81255	547.32184	674.30554	73.88346	537.01501	671.76172	
6131	61.300	-210.50786	14.42105	-108.07107	170.97169	24.62315	-94.11150	-197.40167	36.24323	534.45355	169.88286	9.52998	512.68079	27.08007	1139.88440	-373.15958	-94.39083	517.83472	-269.30652	64.15489	516.92511	-270.80771	-77.30495	547.04364	674.96460	74.58083	536.80200	672.10809	
6132	61.310	-210.64658	14.43773	-107.98656	172.38823	20.23682	-94.40454	-196.59544	30.09550	533.39301	169.62544	9.18202	512.82574	27.52566	1139.83228	-372.75443	-94.50779	517.84766	-268.90079	63.86899	516.85333	-270.27252	-76.91748	547.13159	675.00763	75.93198	536.80225	672.80963	
6133	61.320	-210.80719	14.43568	-107.91364	172.54408	19.12077	-96.21140	-195.61099	23.31246	533.32214	169.40675	8.96666	512.90485	27.80072	1139.74585	-372.25421	-94.44819	517.85760	-268.13782	63.38660	516.82758	-270.02823	-75.47478	547.05908	675.81830	76.35129	536.54846	672.66730	
6134	61.330	-211.00534	14.59800	-107.82261	172.49297	16.01411	-95.59338	-194.70828	16.13782	532.92560	169.07677	8.69656	512.90161	27.97760	1139.68811	-371.95926	-94.56038	518.19629	-267.88632	64.02113	516.88501	-269.98682	-74.93870	546.90942	676.27869	77.25478	536.48376	673.14996	
6135	61.340	-211.15256	14.80570	-107.79041	172.76433	15.71992	-97.07397	-194.30908	14.63227	531.16943	168.92540	8.59392	512.90381	28.43087	1139.85889	-371.29095	-94.73444	518.73285	-267.21722	64.08133	517.74152	-269.47974	-74.50880	547.08521	676.63843	77.93647	536.67780	673.62903	
6136	61.350	-211.20290	15.05927	-107.85085	172.36015	16.23569	-95.81534	-195.86353	14.01479	531.15082	168.52762	8.52692	512.69226	28.29859	1140.63562	-370.80179	-94.82697	519.39648	-266.55154	63.91455	518.15662	-268.95959	-73.31545	548.23187	677.44110	79.33572	537.40845	674.43726	
6137	61.360	-211.07468	16.17837	-107.66828	172.81905	15.89778	-95.56657	-196.12573	13.37064	532.50354	167.98718	9.19060	512.59473	27.96817	1141.45923	-370.14612	-95.04695	519.62219	-265.71790	63.69062	518.17712	-268.39624	-72.11486	550.28723	678.10449	77.91026	538.75049	674.38892	
6138	61.370	-210.01549	19.41949	-106.19308	172.81284	15.12199	-95.48990	-196.03693	12.07282	532.72375	166.28265	11.70982	514.44135	27.93131	1142.19116	-370.13873	-95.54335	520.25549	-265.06360	63.41826	518.46820	-267.98410	-71.25793	551.49384	678.84601	80.10806	539.90283	675.09668	
6139	61.380	-206.74445	22.20658	-102.82542	172.63033	15.50368	-95.56888	-196.16513	12.09308	532.73193	164.05136	14.67662	518.09021	28.03016	1142.52209	-370.48050	-95.67221	520.60205	-264.40204	62.82887	519.16046	-267.58948	-70.97241	552.00195	679.16907	80.64771	540.44708	675.43860	
6140	61.390	-202.35991	27.26750	-99.51556	170.83134	15.06102	-95.89671	-196.37254	11.87003	532.58423	161.19244	21.97120	519.60779	28.29046	1142.32397	-370.51843	-96.18754	521.28052	-263.91821	62.65152	519.32477	-267.02930	-70.20710	552.43933	679.84235	81.26045	540.46881	675.59772	
6141	61.400	-200.81532	37.88973	-99.60846	170.65907	14.99404	-95.89349	-196.75722	11.89721	532.65662	159.95360	30.13515	520.38062	28.51536	1142.09863	-370.08481	-95.94947	521.22180	-263.24701	62.08504	519.42169	-266.20609	-69.26744	552.78625	680.38782	81.51365	540.74976	676.20264	
6142	61.410	-200.73099	46.80495	-99.61782	170.39951	14.74064	-95.94672	-196.42685	11.49448	532.68372	160.74913	41.67970	519.23438	29.01965	1142.02759	-369.09589	-95.81010	521.05859	-262.84216	62.24319	519.15894	-266.03528	-69.34255	552.89362	680.84387	81.76522	540.65558	676.78998	
6143	61.420	-201.67201	58.44666	-99.90961	171.81548	15.04001	-95.52548	-197.22061	11.53880	532.41711	163.20857	52.09489	518.95343	29.66187	1142.03857	-368.41928	-95.61564	520.76678	-262.63181	63.10335	518.71606	-265.76926	-69.75641	552.91730	682.21051	78.95414	539.68768	677.34045	
6144	61.430	-202.94514	69.94614	-99.76449	171.68980	14.93356	-95.22249	-197.09109	10.48010	532.78571	166.22963	63.93380	518.64557	29.93081	1141.86365	-367.91040	-95.30877	520.51678	-262.22983	63.40748	518.53644	-265.22278	-70.01813	552.25946	682.85938	80.95351	539.58331	677.69977	
6145	61.440	-203.03578	80.61543	-98.94499	171.41626	14.86308	-95.07388	-197.44713	10.06335	532.69568	169.33675	74.47753	519.27039	30.65026	1141.42505	-366.68207	-94.75294	520.22040	-261.56549	63.21020	518.33673	-264.47601	-70.19289	551.60889	683.04828	80.50320	538.56915	678.22388	
6146	61.450	-202.58893	91.31480	-97.78531	171.28383	14.74092	-94.83517	-198.24132	10.32281	532.82611	171.05321	85.16267	520.24823	31.04394	1141.07373	-366.14883	-94.47147	519.92969	-261.19690	63.84660	517.87207	-263.57169	-70.97935	550.77917	683.12842	80.68798	537.80536	678.73901	
6147	61.460	-202.13371	102.44748	-96.77499	171.20280	14.58664	-94.68124	-198.58990	10.00934	532.80835	173.01253	95.62231	521.70398	32.00105	1140.98572	-365.22873	-94.33933	519.67322	-261.07693	64.24164	517.58618	-263.48798	-70.92141	550.10382	684.16089	80.20698	537.15784	679.43988	
6148	61.470	-201.06583	111.85589	-95.71308	171.07536	14.53060	-94.52208	-198.85983	9.60098	532.99591	173.36861	105.20727	523.14294	32.71631	1140.76062	-364.57831	-94.10703	519.44373	-260.60901	65.13200	517.28955	-263.17859	-71.18717	549.86047	684.67102	78.58678	536.64795	679.87164	
6149	61.480	-200.21716	120.20595	-94.32143	169.63005	14.40265	-94.48593	-199.23801	9.16442	533.20758	173.32108	113.62100	524.93353	33.83609	1140.40906	-363.35144	-93.57978	518.88934	-259.68631	65.34657	516.82990	-262.21497	-71.73280	548.34058	683.68909	80.61826	535.75610	680.31799	
